<svg viewBox="0 0 268.04 64" xmlns="http://www.w3.org/2000/svg" role="img" aria-label="Calyxa">
  <g fill="#15803d">
    <path transform="translate(32,56) rotate(-42)" d="M0,0 C-9,-10 -9,-28 0,-40 C9,-28 9,-10 0,0 Z"/>
    <path transform="translate(32,56) rotate(0)" d="M0,0 C-8,-9 -8,-21 0,-30 C8,-21 8,-9 0,0 Z"/>
    <path transform="translate(32,56) rotate(42)" d="M0,0 C-9,-10 -9,-28 0,-40 C9,-28 9,-10 0,0 Z"/>
    <circle cx="32" cy="19" r="8"/>
  </g>
  <g transform="translate(96.000,8.744) scale(0.054085)">
    <g transform="translate(-39,710) scale(1,-1)" fill="#1c1c1a">
    <path transform="translate(0,0)" d="M302 -12Q222 -12 163.0 22.5Q104 57 71.5 120.0Q39 183 39 267Q39 351 71.5 413.5Q104 476 163.0 511.0Q222 546 302 546Q370 546 423.0 522.0Q476 498 509.5 453.5Q543 409 551 345L419 338Q411 389 379.5 415.5Q348 442 302 442Q240 442 206.0 395.5Q172 349 172 267Q172 184 206.0 138.0Q240 92 302 92Q349 92 380.5 119.0Q412 146 419 203L551 197Q543 133 510.0 86.0Q477 39 424.0 13.5Q371 -12 302 -12Z"/>
    <path transform="translate(580,0)" d="M225 -12Q141 -12 90.0 26.5Q39 65 39 134Q39 203 82.0 242.0Q125 281 213 298L390 333Q390 390 364.0 418.5Q338 447 287 447Q241 447 214.5 425.5Q188 404 178 364L48 370Q64 455 126.0 500.5Q188 546 287 546Q401 546 459.5 488.5Q518 431 518 324V130Q518 109 525.5 101.0Q533 93 548 93H565V0Q559 -2 545.5 -3.0Q532 -4 518 -4Q485 -4 459.0 6.5Q433 17 419.0 43.5Q405 70 405 116L416 108Q408 73 381.5 45.5Q355 18 315.0 3.0Q275 -12 225 -12ZM251 81Q294 81 325.0 98.0Q356 115 373.0 145.0Q390 175 390 216V246L252 218Q209 209 190.5 191.5Q172 174 172 146Q172 115 192.5 98.0Q213 81 251 81Z"/>
    <path transform="translate(1160,0)" d="M198 0Q140 0 105.0 30.0Q70 60 70 126V710H198V139Q198 119 208.5 109.0Q219 99 238 99H277V0Z"/>
    <path transform="translate(1457,0)" d="M108 -150V-51H176Q202 -51 214.5 -43.0Q227 -35 234 -16L249 21H212L21 534H154L288 141L416 534H549L340 -56Q322 -106 289.5 -128.0Q257 -150 199 -150Z"/>
    <path transform="translate(2027,0)" d="M46 0 238 272 53 534H192L314 352L434 534H575L391 271L582 0H443L316 192L188 0Z"/>
    <path transform="translate(2655,0)" d="M225 -12Q141 -12 90.0 26.5Q39 65 39 134Q39 203 82.0 242.0Q125 281 213 298L390 333Q390 390 364.0 418.5Q338 447 287 447Q241 447 214.5 425.5Q188 404 178 364L48 370Q64 455 126.0 500.5Q188 546 287 546Q401 546 459.5 488.5Q518 431 518 324V130Q518 109 525.5 101.0Q533 93 548 93H565V0Q559 -2 545.5 -3.0Q532 -4 518 -4Q485 -4 459.0 6.5Q433 17 419.0 43.5Q405 70 405 116L416 108Q408 73 381.5 45.5Q355 18 315.0 3.0Q275 -12 225 -12ZM251 81Q294 81 325.0 98.0Q356 115 373.0 145.0Q390 175 390 216V246L252 218Q209 209 190.5 191.5Q172 174 172 146Q172 115 192.5 98.0Q213 81 251 81Z"/>
  </g>
  </g>
</svg>
